<svg xmlns="http://www.w3.org/2000/svg" viewBox="0 0 128 128">
  <defs>
    <linearGradient id="nodeguardMarkGradient" x1="25" y1="20" x2="103" y2="111" gradientUnits="userSpaceOnUse">
      <stop stop-color="#38d9ff"/>
      <stop offset="1" stop-color="#2563eb"/>
    </linearGradient>
  </defs>
  <rect width="128" height="128" rx="28" fill="#08111f"/>
  <path d="M64 10C48 20.6 33.1 27 19 30.1v33.1c0 27.9 17.8 43.6 45 54.8 27.2-11.2 45-26.9 45-54.8V30.1C94.9 27 80 20.6 64 10Z" fill="none" stroke="url(#nodeguardMarkGradient)" stroke-width="5.8" stroke-linejoin="round"/>
  <path d="M41 52.5V74.5M47 50L58 61M71 71.9L80 78.1M87 52.5V74.5" fill="none" stroke="url(#nodeguardMarkGradient)" stroke-width="5.8" stroke-linecap="round" stroke-linejoin="round"/>
  <circle cx="41" cy="44" r="8.5" fill="#08111f" stroke="url(#nodeguardMarkGradient)" stroke-width="5.8"/>
  <circle cx="41" cy="83" r="8.5" fill="#08111f" stroke="url(#nodeguardMarkGradient)" stroke-width="5.8"/>
  <circle cx="64" cy="67" r="8.5" fill="#08111f" stroke="url(#nodeguardMarkGradient)" stroke-width="5.8"/>
  <circle cx="87" cy="44" r="8.5" fill="#08111f" stroke="url(#nodeguardMarkGradient)" stroke-width="5.8"/>
  <circle cx="87" cy="83" r="8.5" fill="#08111f" stroke="url(#nodeguardMarkGradient)" stroke-width="5.8"/>
</svg>
